<?xml version="1.0" standalone="no"?>
<!DOCTYPE svg PUBLIC "-//W3C//DTD SVG 20010904//EN"
 "http://www.w3.org/TR/2001/REC-SVG-20010904/DTD/svg10.dtd">
<svg version="1.0" xmlns="http://www.w3.org/2000/svg"
 width="512.000000pt" height="512.000000pt" viewBox="0 0 512.000000 512.000000"
 preserveAspectRatio="xMidYMid meet">
<metadata>
Created by potrace 1.14, written by Peter Selinger 2001-2017
</metadata>
<g transform="translate(0.000000,512.000000) scale(0.100000,-0.100000)"
fill="#000000" stroke="none">
<path d="M844 4819 c-189 -24 -369 -155 -452 -329 -67 -141 -79 -259 -42 -431
29 -135 30 -137 36 -214 5 -52 2 -86 -10 -129 -20 -67 -34 -89 -131 -204 -138
-165 -154 -186 -184 -249 -45 -92 -61 -171 -56 -283 7 -165 62 -290 180 -406
113 -112 252 -167 419 -166 89 1 157 15 231 47 45 19 66 21 200 19 181 -2 233
-8 308 -39 105 -42 166 -87 276 -205 l108 -115 -13 -57 c-28 -122 -69 -168
-273 -308 -74 -50 -150 -108 -169 -128 -247 -264 -210 -675 81 -896 169 -128
418 -151 620 -55 33 15 64 26 68 23 11 -7 216 -6 269 2 25 3 115 23 200 45
171 44 238 49 347 25 92 -19 137 -39 254 -113 115 -74 153 -93 248 -127 53
-19 89 -40 131 -79 171 -154 428 -194 640 -99 137 61 257 186 315 330 31 78
38 120 49 307 15 246 47 298 279 453 241 161 335 306 342 529 6 174 -52 322
-174 444 -115 115 -250 174 -409 178 -257 7 -509 -170 -581 -407 -22 -73 -29
-116 -36 -237 -4 -65 -15 -169 -20 -195 -25 -115 -75 -176 -232 -282 -48 -33
-55 -35 -129 -33 -96 2 -192 -14 -326 -55 -68 -21 -133 -34 -193 -37 -150 -9
-234 17 -431 134 -66 39 -136 77 -156 84 -21 7 -38 17 -38 22 0 19 97 99 207
173 64 41 135 94 159 116 57 52 126 165 154 248 27 81 33 220 14 309 -60 279
-315 482 -594 472 -152 -6 -178 -5 -217 1 -22 4 -116 8 -208 8 -274 3 -362 38
-541 215 -61 61 -135 131 -165 156 l-54 47 0 93 c0 84 3 100 29 151 16 31 68
102 117 157 120 138 142 168 173 229 82 162 82 372 2 530 -73 143 -220 272
-351 307 -16 5 -32 9 -35 10 -56 18 -160 24 -236 14z"/>
</g>
</svg>
